<?xml version="1.0" standalone="no"?>
<!DOCTYPE svg PUBLIC "-//W3C//DTD SVG 20010904//EN"
 "http://www.w3.org/TR/2001/REC-SVG-20010904/DTD/svg10.dtd">
<svg version="1.0" xmlns="http://www.w3.org/2000/svg"
 width="762.000000pt" height="522.000000pt" viewBox="0 0 762.000000 522.000000"
 preserveAspectRatio="xMidYMid meet">

<g transform="translate(0.000000,522.000000) scale(0.100000,-0.100000)"
fill="#000000" stroke="none">
<path d="M2741 4605 c-145 -32 -300 -104 -412 -192 -158 -124 -299 -350 -339
-543 -24 -117 -26 -286 -4 -400 60 -316 287 -586 595 -708 263 -105 532 -83
771 62 172 104 289 231 626 676 377 499 505 632 696 721 86 40 136 46 230 24
208 -46 378 -195 447 -391 27 -75 36 -218 20 -310 -39 -223 -226 -421 -456
-479 -103 -26 -187 -15 -294 38 -111 56 -182 121 -321 292 -40 50 -76 91 -80
93 -4 1 -58 -65 -120 -148 l-113 -151 25 -27 c13 -15 60 -67 104 -116 152
-170 314 -276 499 -327 175 -48 407 -19 599 75 254 124 428 332 512 611 24 79
27 108 28 235 1 176 -16 263 -79 397 -105 224 -264 384 -489 493 -134 65 -196
80 -346 87 -150 7 -244 -13 -379 -77 -223 -107 -341 -227 -740 -755 -225 -297
-444 -560 -508 -611 -93 -74 -213 -124 -296 -124 -189 0 -420 147 -504 320
-59 123 -67 155 -67 285 0 130 8 162 67 285 44 92 158 203 257 253 89 45 205
71 275 63 130 -15 347 -177 516 -384 l35 -44 116 155 116 155 -114 125 c-172
189 -324 289 -511 336 -96 25 -262 27 -362 6z"/>
<path d="M2522 2221 c-113 -42 -172 -125 -172 -241 0 -68 18 -117 57 -161 50
-55 96 -80 269 -144 82 -31 166 -67 187 -81 93 -61 104 -177 25 -251 -51 -48
-115 -67 -228 -66 -90 0 -119 4 -200 31 -52 17 -97 28 -101 24 -12 -13 -28
-72 -21 -76 4 -2 51 -18 104 -35 264 -84 506 -28 579 134 25 53 25 156 0 210
-35 77 -97 118 -291 190 -231 86 -280 125 -280 225 0 150 182 210 422 139 87
-26 99 -22 101 32 2 34 2 34 -78 57 -114 35 -298 41 -373 13z"/>
<path d="M4404 2231 c-148 -38 -260 -167 -300 -348 -26 -116 -16 -313 21 -413
32 -86 68 -143 120 -188 88 -78 216 -113 340 -93 233 36 365 224 365 521 0
241 -83 410 -241 491 -58 29 -73 33 -169 35 -58 2 -119 0 -136 -5z m214 -96
c147 -44 232 -200 232 -425 0 -153 -34 -260 -107 -341 -65 -72 -171 -106 -277
-89 -188 30 -284 192 -274 465 5 129 25 204 72 276 71 106 219 154 354 114z"/>
<path d="M887 2223 c-4 -3 -7 -235 -7 -515 l0 -508 345 0 345 0 0 40 0 40
-292 2 -293 3 -3 198 -2 197 240 0 240 0 0 45 0 45 -240 0 -240 0 0 185 0 185
280 0 280 0 10 26 c6 14 10 34 10 45 0 18 -10 19 -333 19 -184 0 -337 -3 -340
-7z"/>
<path d="M3170 2185 l0 -45 175 0 175 0 0 -470 0 -470 50 0 50 0 0 470 0 470
181 0 180 0 -3 43 -3 42 -402 3 -403 2 0 -45z"/>
<path d="M5178 2224 c-5 -4 -8 -236 -8 -516 l0 -508 50 0 50 0 0 221 0 221
128 -3 c118 -4 131 -6 187 -34 80 -40 116 -91 190 -265 l60 -140 52 0 c61 0
64 -21 -21 173 -68 160 -106 219 -162 258 -24 16 -44 32 -44 34 0 2 29 18 64
35 113 53 166 135 166 252 0 115 -46 190 -147 240 l-68 33 -245 3 c-135 2
-248 0 -252 -4z m524 -116 c114 -68 120 -250 9 -324 -67 -44 -121 -54 -288
-54 l-153 0 0 206 0 206 193 -4 c189 -3 193 -3 239 -30z"/>
<path d="M6160 1715 l0 -515 340 0 340 0 0 40 0 40 -292 2 -293 3 -3 198 -2
197 240 0 240 0 0 45 0 45 -240 0 -240 0 2 183 3 182 279 5 279 5 13 37 c7 20
10 39 7 42 -4 3 -156 6 -340 6 l-333 0 0 -515z"/>
<path d="M1750 1590 l0 -40 208 2 207 3 0 35 0 35 -207 3 -208 2 0 -40z"/>
<path d="M880 850 l0 -130 80 0 c47 0 80 4 80 10 0 6 -28 10 -65 10 l-65 0 0
50 0 50 60 0 c47 0 60 3 60 15 0 12 -13 15 -60 15 l-60 0 0 40 0 40 65 0 c51
0 65 3 65 15 0 12 -16 15 -80 15 l-80 0 0 -130z"/>
<path d="M1146 958 c3 -12 23 -69 44 -127 51 -144 61 -143 117 9 46 127 49
140 30 140 -7 0 -27 -43 -46 -97 -19 -54 -37 -102 -41 -106 -4 -4 -24 39 -45
97 -24 69 -42 106 -52 106 -10 0 -12 -6 -7 -22z"/>
<path d="M1450 850 l0 -130 80 0 c47 0 80 4 80 10 0 6 -28 10 -65 10 l-65 0 0
50 0 50 61 0 c81 0 77 24 -4 28 l-57 3 0 39 0 40 65 0 c51 0 65 3 65 15 0 12
-16 15 -80 15 l-80 0 0 -130z"/>
<path d="M1700 850 c0 -109 2 -130 15 -130 12 0 15 13 15 55 l0 55 33 0 c29 0
35 -6 62 -55 16 -30 35 -55 42 -55 18 0 17 6 -13 60 l-26 47 26 26 c33 33 33
71 1 102 -21 22 -33 25 -90 25 l-65 0 0 -130z m138 88 c17 -17 15 -53 -4 -68
-8 -8 -34 -14 -57 -14 l-42 -1 -3 48 -3 47 48 0 c27 0 54 -5 61 -12z"/>
<path d="M2005 913 c41 -62 45 -73 45 -130 0 -49 3 -63 15 -63 12 0 15 13 15
58 0 51 5 64 45 124 49 74 51 78 32 78 -8 0 -29 -22 -48 -50 -19 -27 -37 -50
-40 -50 -4 0 -22 22 -40 50 -19 27 -42 50 -52 50 -14 0 -8 -14 28 -67z"/>
<path d="M2270 965 c0 -10 11 -15 35 -15 l35 0 0 -115 c0 -96 3 -115 15 -115
12 0 15 19 15 115 l0 115 30 0 c20 0 30 5 30 15 0 12 -16 15 -80 15 -64 0 -80
-3 -80 -15z"/>
<path d="M2530 850 c0 -80 4 -130 10 -130 6 0 10 27 10 60 l0 61 68 -3 67 -3
3 -57 c2 -32 7 -58 12 -58 6 0 10 55 10 130 0 80 -4 130 -10 130 -5 0 -10 -25
-10 -55 l0 -55 -70 0 -70 0 0 55 c0 30 -4 55 -10 55 -6 0 -10 -50 -10 -130z"/>
<path d="M2810 845 c0 -113 2 -135 15 -135 13 0 15 22 15 135 0 113 -2 135
-15 135 -13 0 -15 -22 -15 -135z"/>
<path d="M2930 850 c0 -108 3 -130 15 -130 11 0 15 20 17 101 l3 100 75 -100
c41 -56 80 -101 87 -101 10 0 13 30 13 130 0 159 -18 177 -22 23 l-3 -108 -80
107 c-44 59 -86 107 -92 108 -10 0 -13 -32 -13 -130z"/>
<path d="M3292 964 c-85 -60 -63 -211 36 -242 37 -12 46 -12 79 5 37 18 38 19
41 81 l3 62 -51 0 c-37 0 -50 -4 -50 -14 0 -10 13 -16 37 -18 35 -3 38 -5 39
-36 2 -64 -75 -84 -127 -33 -24 25 -29 38 -29 80 0 66 29 103 82 103 19 0 46
-5 58 -12 31 -17 39 -2 11 21 -29 23 -98 25 -129 3z"/>
<path d="M3772 857 c-47 -137 -47 -137 -28 -137 8 0 17 12 21 27 10 43 24 53
70 53 41 0 44 -2 59 -40 9 -22 22 -40 30 -40 11 0 5 26 -26 113 -22 61 -43
120 -45 130 -3 9 -13 17 -22 17 -12 0 -28 -33 -59 -123z m92 -14 c7 -21 4 -23
-33 -23 l-40 0 15 43 c26 75 25 74 39 37 7 -19 15 -45 19 -57z"/>
<path d="M4040 965 c0 -10 10 -15 30 -15 l30 0 0 -115 c0 -96 3 -115 15 -115
12 0 15 19 15 115 l0 115 30 0 c20 0 30 5 30 15 0 12 -15 15 -75 15 -60 0 -75
-3 -75 -15z"/>
<path d="M4504 946 c-31 -31 -34 -39 -34 -94 0 -50 4 -66 26 -91 74 -88 214
-35 214 81 0 88 -48 138 -131 138 -33 0 -47 -6 -75 -34z m159 -27 c11 -14 17
-38 17 -71 0 -41 -5 -54 -29 -79 -92 -91 -219 62 -130 157 36 38 107 35 142
-7z"/>
<path d="M4810 850 c0 -80 4 -130 10 -130 6 0 10 40 10 100 0 55 3 100 8 100
4 -1 40 -46 81 -100 40 -55 79 -100 87 -100 11 0 14 25 14 130 0 109 -2 130
-15 130 -12 0 -15 -18 -15 -106 l0 -107 -81 107 c-44 58 -85 106 -90 106 -5 0
-9 -58 -9 -130z"/>
<path d="M5110 850 l0 -130 80 0 c47 0 80 4 80 10 0 6 -28 10 -65 10 l-65 0 0
50 0 50 60 0 c47 0 60 3 60 15 0 12 -13 15 -60 15 l-60 0 0 40 0 40 65 0 c51
0 65 3 65 15 0 12 -16 15 -80 15 l-80 0 0 -130z"/>
<path d="M5540 850 c0 -109 2 -130 15 -130 12 0 15 13 15 55 l0 55 44 0 c59 0
74 7 92 42 13 25 13 35 3 59 -16 40 -36 49 -108 49 l-61 0 0 -130z m134 84
c38 -37 11 -74 -59 -82 l-45 -5 0 52 0 51 44 0 c27 0 51 -6 60 -16z"/>
<path d="M5810 850 l0 -130 80 0 c47 0 80 4 80 10 0 6 -28 10 -65 10 l-65 0 0
120 c0 100 -2 120 -15 120 -13 0 -15 -21 -15 -130z"/>
<path d="M6155 968 c-3 -7 -23 -64 -45 -126 -22 -63 -40 -116 -40 -118 0 -2 6
-4 13 -4 8 0 21 18 30 40 15 39 17 40 61 40 44 0 47 -1 62 -40 9 -22 22 -40
30 -40 8 0 14 1 14 3 0 3 -45 131 -76 215 -15 40 -40 56 -49 30z m51 -122 c6
-24 4 -26 -30 -26 -41 0 -42 0 -19 66 l17 49 12 -31 c7 -17 16 -43 20 -58z"/>
<path d="M6432 964 c-32 -22 -52 -67 -52 -116 0 -89 74 -152 151 -129 41 12
66 35 50 46 -6 3 -21 -1 -33 -9 -35 -25 -76 -20 -109 13 -24 25 -29 38 -29 80
0 70 29 104 89 103 24 -1 49 -6 54 -11 15 -15 27 -14 27 2 0 34 -108 50 -148
21z"/>
<path d="M6680 850 l0 -130 80 0 c47 0 80 4 80 10 0 6 -28 10 -65 10 l-65 0 0
50 0 50 60 0 c47 0 60 3 60 15 0 12 -13 15 -60 15 l-60 0 0 40 0 40 65 0 c51
0 65 3 65 15 0 12 -16 15 -80 15 l-80 0 0 -130z"/>
</g>
</svg>
